# xmcd
#
# Track frame offsets: 
#        150
#        21452
#        38276
#        59754
#        80539
#        98216
#        130786
#        154896
#        169278
#        192004
#
# Disc length: 2768 seconds
#
# Revision: 4
# Processed by: cddbd v1.5.2PL0 Copyright (c) Steve Scherf et al.
# Submitted via: ExactAudioCopy v0.99pb5
#
DISCID=7f0ace0a
DTITLE=Fred Eaglesmith - Dusty
DYEAR=2004
DGENRE=Folk-Rock
TTITLE0=Dusty
TTITLE1=Tunnel
TTITLE2=I75
TTITLE3=Ship
TTITLE4=Rainbow
TTITLE5=Wichita
TTITLE6=Crowds
TTITLE7=Hey Baby
TTITLE8=Codeine
TTITLE9=Carne del Toro
EXTD=
EXTT0=
EXTT1=
EXTT2=
EXTT3=
EXTT4=
EXTT5=
EXTT6=
EXTT7=
EXTT8=
EXTT9=
PLAYORDER=
